<svg width="25" height="24" viewBox="0 0 25 24" fill="none" xmlns="http://www.w3.org/2000/svg">
<g id="Group 1143">
<path id="Rectangle 4473" d="M16.3575 23.3555H4.07143C2.45493 23.3555 1.1445 22.0451 1.1445 20.4286V3.57143C1.1445 1.95493 2.45493 0.6445 4.07143 0.6445H13.6169C14.3812 0.6445 15.1153 0.943489 15.6621 1.47756L18.4026 4.15434C18.9665 4.70509 19.2844 5.45999 19.2844 6.24821V20.4286C19.2844 22.0451 17.974 23.3555 16.3575 23.3555Z" fill="#613EEA" stroke="#F5F5F5" stroke-width="1.289"/>
<g id="Mask group">
<mask id="mask0_947_3428" style="mask-type:alpha" maskUnits="userSpaceOnUse" x="0" y="0" width="20" height="24">
<path id="Rectangle 4479" d="M16.3575 23.7024H4.07143C2.26335 23.7024 0.797619 22.2366 0.797619 20.4286V3.57143C0.797619 1.76335 2.26335 0.297619 4.07143 0.297619H13.6169C14.4718 0.297619 15.2928 0.632042 15.9044 1.2294L18.645 3.90618C19.2757 4.52221 19.6313 5.36658 19.6313 6.24821V20.4286C19.6313 22.2366 18.1655 23.7024 16.3575 23.7024Z" fill="#F5F5F5" stroke="black" stroke-width="0.595238"/>
</mask>
<g mask="url(#mask0_947_3428)">
<path id="Vector 403" d="M15.0723 4.44658V0.456891C15.0723 0.189322 15.3978 0.0576564 15.5838 0.250008L19.4417 4.2397C19.6243 4.42859 19.4905 4.7442 19.2277 4.7442H15.3699C15.2055 4.7442 15.0723 4.61095 15.0723 4.44658Z" stroke="#F5F5F5" stroke-width="0.892857" stroke-linecap="round"/>
</g>
</g>
<path id="Vector 401" d="M3.35742 3.9071H13.3576" stroke="#F5F5F5" stroke-linecap="round"/>
<path id="Vector 402" d="M6.78613 6.97668H13.072M6.78613 10.3255H14.2148M6.78613 13.6744H12.5005M6.78613 17.0232H13.072M6.78613 20.372H16.7863" stroke="#F5F5F5" stroke-linecap="round"/>
<g id="Rectangle 4474">
<mask id="path-6-inside-1_947_3428" fill="white">
<rect x="3.35742" y="5.58142" width="2.28575" height="2.23256" rx="0.297619"/>
</mask>
<rect x="3.35742" y="5.58142" width="2.28575" height="2.23256" rx="0.297619" stroke="#F5F5F5" stroke-width="1.6" mask="url(#path-6-inside-1_947_3428)"/>
</g>
<g id="Rectangle 4475">
<mask id="path-7-inside-2_947_3428" fill="white">
<rect x="3.35742" y="8.93005" width="2.28575" height="2.23256" rx="0.297619"/>
</mask>
<rect x="3.35742" y="8.93005" width="2.28575" height="2.23256" rx="0.297619" stroke="#F5F5F5" stroke-width="1.6" mask="url(#path-7-inside-2_947_3428)"/>
</g>
<g id="Rectangle 4476">
<mask id="path-8-inside-3_947_3428" fill="white">
<rect x="3.35742" y="12.2791" width="2.28575" height="2.23256" rx="0.297619"/>
</mask>
<rect x="3.35742" y="12.2791" width="2.28575" height="2.23256" rx="0.297619" stroke="#F5F5F5" stroke-width="1.6" mask="url(#path-8-inside-3_947_3428)"/>
</g>
<g id="Rectangle 4477">
<mask id="path-9-inside-4_947_3428" fill="white">
<rect x="3.35742" y="15.6279" width="2.28575" height="2.23256" rx="0.297619"/>
</mask>
<rect x="3.35742" y="15.6279" width="2.28575" height="2.23256" rx="0.297619" stroke="#F5F5F5" stroke-width="1.6" mask="url(#path-9-inside-4_947_3428)"/>
</g>
<g id="Rectangle 4478">
<mask id="path-10-inside-5_947_3428" fill="white">
<rect x="3.35742" y="18.9767" width="2.28575" height="2.23256" rx="0.297619"/>
</mask>
<rect x="3.35742" y="18.9767" width="2.28575" height="2.23256" rx="0.297619" stroke="#F5F5F5" stroke-width="1.6" mask="url(#path-10-inside-5_947_3428)"/>
</g>
<g id="Group 1142">
<path id="Ellipse 91" d="M23.9998 13.9536C23.9998 16.4406 21.9322 18.4768 19.3568 18.4768C16.7814 18.4768 14.7139 16.4406 14.7139 13.9536C14.7139 11.4665 16.7814 9.4303 19.3568 9.4303C21.9322 9.4303 23.9998 11.4665 23.9998 13.9536Z" fill="#613EEA" stroke="#F5F5F5"/>
<path id="?" d="M18.6458 15.2885V15.2599C18.6491 14.9571 18.6816 14.7161 18.7432 14.5369C18.8049 14.3577 18.8926 14.2126 19.0062 14.1016C19.1199 13.9906 19.2562 13.8884 19.4153 13.7948C19.5111 13.7377 19.5972 13.6703 19.6735 13.5927C19.7498 13.5134 19.8098 13.4222 19.8537 13.3191C19.8991 13.2161 19.9218 13.1019 19.9218 12.9766C19.9218 12.8212 19.8845 12.6865 19.8098 12.5723C19.7351 12.4581 19.6353 12.3701 19.5103 12.3083C19.3853 12.2465 19.2465 12.2155 19.0939 12.2155C18.9608 12.2155 18.8325 12.2425 18.7092 12.2964C18.5858 12.3503 18.4827 12.4351 18.3999 12.5509C18.3171 12.6666 18.2692 12.8181 18.2562 13.0052H17.6426C17.6556 12.7356 17.727 12.5049 17.8569 12.3131C17.9884 12.1212 18.1613 11.9745 18.3755 11.873C18.5915 11.7716 18.8309 11.7208 19.0939 11.7208C19.3796 11.7208 19.628 11.7763 19.839 11.8873C20.0517 11.9983 20.2157 12.1505 20.3309 12.344C20.4478 12.5374 20.5063 12.7578 20.5063 13.0052C20.5063 13.1796 20.4787 13.3374 20.4235 13.4785C20.3699 13.6196 20.292 13.7457 20.1897 13.8567C20.089 13.9677 19.9673 14.066 19.8244 14.1516C19.6816 14.2388 19.5671 14.3308 19.4811 14.4275C19.395 14.5226 19.3325 14.636 19.2936 14.7676C19.2546 14.8992 19.2335 15.0633 19.2303 15.2599V15.2885H18.6458ZM18.9575 16.6965C18.8374 16.6965 18.7343 16.6545 18.6483 16.5705C18.5622 16.4864 18.5192 16.3857 18.5192 16.2684C18.5192 16.1511 18.5622 16.0504 18.6483 15.9663C18.7343 15.8823 18.8374 15.8403 18.9575 15.8403C19.0777 15.8403 19.1808 15.8823 19.2668 15.9663C19.3528 16.0504 19.3959 16.1511 19.3959 16.2684C19.3959 16.3461 19.3756 16.4174 19.335 16.4825C19.296 16.5475 19.2433 16.5998 19.1767 16.6394C19.1118 16.6775 19.0387 16.6965 18.9575 16.6965Z" fill="#F5F5F5"/>
</g>
</g>
</svg>
